<svg xmlns="http://www.w3.org/2000/svg" xmlns:xlink="http://www.w3.org/1999/xlink" width="642.497" height="476.497" viewBox="0 0 642.497 476.497">
  <defs>
    <clipPath id="clip-path">
      <rect width="642.497" height="476.497" fill="none"/>
    </clipPath>
  </defs>
  <g id="Repeat_Grid_2" data-name="Repeat Grid 2" opacity="0.2" clip-path="url(#clip-path)">
    <g transform="translate(-1055.751 -636.751)">
      <rect id="Rectangle_9" data-name="Rectangle 9" width="10" height="10" rx="5" transform="translate(1071.102 646.66) rotate(90)" fill="#d66853"/>
    </g>
    <g transform="translate(-1001.751 -636.751)">
      <rect id="Rectangle_9-2" data-name="Rectangle 9" width="10" height="10" rx="5" transform="translate(1071.102 646.66) rotate(90)" fill="#d66853"/>
    </g>
    <g transform="translate(-947.751 -636.751)">
      <rect id="Rectangle_9-3" data-name="Rectangle 9" width="10" height="10" rx="5" transform="translate(1071.102 646.66) rotate(90)" fill="#d66853"/>
    </g>
    <g transform="translate(-893.751 -636.751)">
      <rect id="Rectangle_9-4" data-name="Rectangle 9" width="10" height="10" rx="5" transform="translate(1071.102 646.66) rotate(90)" fill="#d66853"/>
    </g>
    <g transform="translate(-839.751 -636.751)">
      <rect id="Rectangle_9-5" data-name="Rectangle 9" width="10" height="10" rx="5" transform="translate(1071.102 646.66) rotate(90)" fill="#d66853"/>
    </g>
    <g transform="translate(-785.751 -636.751)">
      <rect id="Rectangle_9-6" data-name="Rectangle 9" width="10" height="10" rx="5" transform="translate(1071.102 646.66) rotate(90)" fill="#d66853"/>
    </g>
    <g transform="translate(-731.751 -636.751)">
      <rect id="Rectangle_9-7" data-name="Rectangle 9" width="10" height="10" rx="5" transform="translate(1071.102 646.66) rotate(90)" fill="#d66853"/>
    </g>
    <g transform="translate(-677.751 -636.751)">
      <rect id="Rectangle_9-8" data-name="Rectangle 9" width="10" height="10" rx="5" transform="translate(1071.102 646.66) rotate(90)" fill="#d66853"/>
    </g>
    <g transform="translate(-623.751 -636.751)">
      <rect id="Rectangle_9-9" data-name="Rectangle 9" width="10" height="10" rx="5" transform="translate(1071.102 646.66) rotate(90)" fill="#d66853"/>
    </g>
    <g transform="translate(-569.751 -636.751)">
      <rect id="Rectangle_9-10" data-name="Rectangle 9" width="10" height="10" rx="5" transform="translate(1071.102 646.66) rotate(90)" fill="#d66853"/>
    </g>
    <g transform="translate(-515.751 -636.751)">
      <rect id="Rectangle_9-11" data-name="Rectangle 9" width="10" height="10" rx="5" transform="translate(1071.102 646.66) rotate(90)" fill="#d66853"/>
    </g>
    <g transform="translate(-461.751 -636.751)">
      <rect id="Rectangle_9-12" data-name="Rectangle 9" width="10" height="10" rx="5" transform="translate(1071.102 646.66) rotate(90)" fill="#d66853"/>
    </g>
    <g transform="translate(-1055.751 -582.751)">
      <rect id="Rectangle_9-13" data-name="Rectangle 9" width="10" height="10" rx="5" transform="translate(1071.102 646.66) rotate(90)" fill="#d66853"/>
    </g>
    <g transform="translate(-1001.751 -582.751)">
      <rect id="Rectangle_9-14" data-name="Rectangle 9" width="10" height="10" rx="5" transform="translate(1071.102 646.66) rotate(90)" fill="#d66853"/>
    </g>
    <g transform="translate(-947.751 -582.751)">
      <rect id="Rectangle_9-15" data-name="Rectangle 9" width="10" height="10" rx="5" transform="translate(1071.102 646.66) rotate(90)" fill="#d66853"/>
    </g>
    <g transform="translate(-893.751 -582.751)">
      <rect id="Rectangle_9-16" data-name="Rectangle 9" width="10" height="10" rx="5" transform="translate(1071.102 646.66) rotate(90)" fill="#d66853"/>
    </g>
    <g transform="translate(-839.751 -582.751)">
      <rect id="Rectangle_9-17" data-name="Rectangle 9" width="10" height="10" rx="5" transform="translate(1071.102 646.66) rotate(90)" fill="#d66853"/>
    </g>
    <g transform="translate(-785.751 -582.751)">
      <rect id="Rectangle_9-18" data-name="Rectangle 9" width="10" height="10" rx="5" transform="translate(1071.102 646.66) rotate(90)" fill="#d66853"/>
    </g>
    <g transform="translate(-731.751 -582.751)">
      <rect id="Rectangle_9-19" data-name="Rectangle 9" width="10" height="10" rx="5" transform="translate(1071.102 646.66) rotate(90)" fill="#d66853"/>
    </g>
    <g transform="translate(-677.751 -582.751)">
      <rect id="Rectangle_9-20" data-name="Rectangle 9" width="10" height="10" rx="5" transform="translate(1071.102 646.66) rotate(90)" fill="#d66853"/>
    </g>
    <g transform="translate(-623.751 -582.751)">
      <rect id="Rectangle_9-21" data-name="Rectangle 9" width="10" height="10" rx="5" transform="translate(1071.102 646.66) rotate(90)" fill="#d66853"/>
    </g>
    <g transform="translate(-569.751 -582.751)">
      <rect id="Rectangle_9-22" data-name="Rectangle 9" width="10" height="10" rx="5" transform="translate(1071.102 646.66) rotate(90)" fill="#d66853"/>
    </g>
    <g transform="translate(-515.751 -582.751)">
      <rect id="Rectangle_9-23" data-name="Rectangle 9" width="10" height="10" rx="5" transform="translate(1071.102 646.66) rotate(90)" fill="#d66853"/>
    </g>
    <g transform="translate(-461.751 -582.751)">
      <rect id="Rectangle_9-24" data-name="Rectangle 9" width="10" height="10" rx="5" transform="translate(1071.102 646.66) rotate(90)" fill="#d66853"/>
    </g>
    <g transform="translate(-1055.751 -528.751)">
      <rect id="Rectangle_9-25" data-name="Rectangle 9" width="10" height="10" rx="5" transform="translate(1071.102 646.66) rotate(90)" fill="#d66853"/>
    </g>
    <g transform="translate(-1001.751 -528.751)">
      <rect id="Rectangle_9-26" data-name="Rectangle 9" width="10" height="10" rx="5" transform="translate(1071.102 646.66) rotate(90)" fill="#d66853"/>
    </g>
    <g transform="translate(-947.751 -528.751)">
      <rect id="Rectangle_9-27" data-name="Rectangle 9" width="10" height="10" rx="5" transform="translate(1071.102 646.66) rotate(90)" fill="#d66853"/>
    </g>
    <g transform="translate(-893.751 -528.751)">
      <rect id="Rectangle_9-28" data-name="Rectangle 9" width="10" height="10" rx="5" transform="translate(1071.102 646.66) rotate(90)" fill="#d66853"/>
    </g>
    <g transform="translate(-839.751 -528.751)">
      <rect id="Rectangle_9-29" data-name="Rectangle 9" width="10" height="10" rx="5" transform="translate(1071.102 646.66) rotate(90)" fill="#d66853"/>
    </g>
    <g transform="translate(-785.751 -528.751)">
      <rect id="Rectangle_9-30" data-name="Rectangle 9" width="10" height="10" rx="5" transform="translate(1071.102 646.66) rotate(90)" fill="#d66853"/>
    </g>
    <g transform="translate(-731.751 -528.751)">
      <rect id="Rectangle_9-31" data-name="Rectangle 9" width="10" height="10" rx="5" transform="translate(1071.102 646.66) rotate(90)" fill="#d66853"/>
    </g>
    <g transform="translate(-677.751 -528.751)">
      <rect id="Rectangle_9-32" data-name="Rectangle 9" width="10" height="10" rx="5" transform="translate(1071.102 646.66) rotate(90)" fill="#d66853"/>
    </g>
    <g transform="translate(-623.751 -528.751)">
      <rect id="Rectangle_9-33" data-name="Rectangle 9" width="10" height="10" rx="5" transform="translate(1071.102 646.66) rotate(90)" fill="#d66853"/>
    </g>
    <g transform="translate(-569.751 -528.751)">
      <rect id="Rectangle_9-34" data-name="Rectangle 9" width="10" height="10" rx="5" transform="translate(1071.102 646.66) rotate(90)" fill="#d66853"/>
    </g>
    <g transform="translate(-515.751 -528.751)">
      <rect id="Rectangle_9-35" data-name="Rectangle 9" width="10" height="10" rx="5" transform="translate(1071.102 646.66) rotate(90)" fill="#d66853"/>
    </g>
    <g transform="translate(-461.751 -528.751)">
      <rect id="Rectangle_9-36" data-name="Rectangle 9" width="10" height="10" rx="5" transform="translate(1071.102 646.66) rotate(90)" fill="#d66853"/>
    </g>
    <g transform="translate(-1055.751 -474.751)">
      <rect id="Rectangle_9-37" data-name="Rectangle 9" width="10" height="10" rx="5" transform="translate(1071.102 646.66) rotate(90)" fill="#d66853"/>
    </g>
    <g transform="translate(-1001.751 -474.751)">
      <rect id="Rectangle_9-38" data-name="Rectangle 9" width="10" height="10" rx="5" transform="translate(1071.102 646.66) rotate(90)" fill="#d66853"/>
    </g>
    <g transform="translate(-947.751 -474.751)">
      <rect id="Rectangle_9-39" data-name="Rectangle 9" width="10" height="10" rx="5" transform="translate(1071.102 646.66) rotate(90)" fill="#d66853"/>
    </g>
    <g transform="translate(-893.751 -474.751)">
      <rect id="Rectangle_9-40" data-name="Rectangle 9" width="10" height="10" rx="5" transform="translate(1071.102 646.66) rotate(90)" fill="#d66853"/>
    </g>
    <g transform="translate(-839.751 -474.751)">
      <rect id="Rectangle_9-41" data-name="Rectangle 9" width="10" height="10" rx="5" transform="translate(1071.102 646.66) rotate(90)" fill="#d66853"/>
    </g>
    <g transform="translate(-785.751 -474.751)">
      <rect id="Rectangle_9-42" data-name="Rectangle 9" width="10" height="10" rx="5" transform="translate(1071.102 646.66) rotate(90)" fill="#d66853"/>
    </g>
    <g transform="translate(-731.751 -474.751)">
      <rect id="Rectangle_9-43" data-name="Rectangle 9" width="10" height="10" rx="5" transform="translate(1071.102 646.66) rotate(90)" fill="#d66853"/>
    </g>
    <g transform="translate(-677.751 -474.751)">
      <rect id="Rectangle_9-44" data-name="Rectangle 9" width="10" height="10" rx="5" transform="translate(1071.102 646.66) rotate(90)" fill="#d66853"/>
    </g>
    <g transform="translate(-623.751 -474.751)">
      <rect id="Rectangle_9-45" data-name="Rectangle 9" width="10" height="10" rx="5" transform="translate(1071.102 646.66) rotate(90)" fill="#d66853"/>
    </g>
    <g transform="translate(-569.751 -474.751)">
      <rect id="Rectangle_9-46" data-name="Rectangle 9" width="10" height="10" rx="5" transform="translate(1071.102 646.66) rotate(90)" fill="#d66853"/>
    </g>
    <g transform="translate(-515.751 -474.751)">
      <rect id="Rectangle_9-47" data-name="Rectangle 9" width="10" height="10" rx="5" transform="translate(1071.102 646.66) rotate(90)" fill="#d66853"/>
    </g>
    <g transform="translate(-461.751 -474.751)">
      <rect id="Rectangle_9-48" data-name="Rectangle 9" width="10" height="10" rx="5" transform="translate(1071.102 646.66) rotate(90)" fill="#d66853"/>
    </g>
    <g transform="translate(-1055.751 -420.751)">
      <rect id="Rectangle_9-49" data-name="Rectangle 9" width="10" height="10" rx="5" transform="translate(1071.102 646.66) rotate(90)" fill="#d66853"/>
    </g>
    <g transform="translate(-1001.751 -420.751)">
      <rect id="Rectangle_9-50" data-name="Rectangle 9" width="10" height="10" rx="5" transform="translate(1071.102 646.66) rotate(90)" fill="#d66853"/>
    </g>
    <g transform="translate(-947.751 -420.751)">
      <rect id="Rectangle_9-51" data-name="Rectangle 9" width="10" height="10" rx="5" transform="translate(1071.102 646.66) rotate(90)" fill="#d66853"/>
    </g>
    <g transform="translate(-893.751 -420.751)">
      <rect id="Rectangle_9-52" data-name="Rectangle 9" width="10" height="10" rx="5" transform="translate(1071.102 646.66) rotate(90)" fill="#d66853"/>
    </g>
    <g transform="translate(-839.751 -420.751)">
      <rect id="Rectangle_9-53" data-name="Rectangle 9" width="10" height="10" rx="5" transform="translate(1071.102 646.66) rotate(90)" fill="#d66853"/>
    </g>
    <g transform="translate(-785.751 -420.751)">
      <rect id="Rectangle_9-54" data-name="Rectangle 9" width="10" height="10" rx="5" transform="translate(1071.102 646.66) rotate(90)" fill="#d66853"/>
    </g>
    <g transform="translate(-731.751 -420.751)">
      <rect id="Rectangle_9-55" data-name="Rectangle 9" width="10" height="10" rx="5" transform="translate(1071.102 646.66) rotate(90)" fill="#d66853"/>
    </g>
    <g transform="translate(-677.751 -420.751)">
      <rect id="Rectangle_9-56" data-name="Rectangle 9" width="10" height="10" rx="5" transform="translate(1071.102 646.66) rotate(90)" fill="#d66853"/>
    </g>
    <g transform="translate(-623.751 -420.751)">
      <rect id="Rectangle_9-57" data-name="Rectangle 9" width="10" height="10" rx="5" transform="translate(1071.102 646.66) rotate(90)" fill="#d66853"/>
    </g>
    <g transform="translate(-569.751 -420.751)">
      <rect id="Rectangle_9-58" data-name="Rectangle 9" width="10" height="10" rx="5" transform="translate(1071.102 646.66) rotate(90)" fill="#d66853"/>
    </g>
    <g transform="translate(-515.751 -420.751)">
      <rect id="Rectangle_9-59" data-name="Rectangle 9" width="10" height="10" rx="5" transform="translate(1071.102 646.66) rotate(90)" fill="#d66853"/>
    </g>
    <g transform="translate(-461.751 -420.751)">
      <rect id="Rectangle_9-60" data-name="Rectangle 9" width="10" height="10" rx="5" transform="translate(1071.102 646.66) rotate(90)" fill="#d66853"/>
    </g>
    <g transform="translate(-1055.751 -366.751)">
      <rect id="Rectangle_9-61" data-name="Rectangle 9" width="10" height="10" rx="5" transform="translate(1071.102 646.66) rotate(90)" fill="#d66853"/>
    </g>
    <g transform="translate(-1001.751 -366.751)">
      <rect id="Rectangle_9-62" data-name="Rectangle 9" width="10" height="10" rx="5" transform="translate(1071.102 646.66) rotate(90)" fill="#d66853"/>
    </g>
    <g transform="translate(-947.751 -366.751)">
      <rect id="Rectangle_9-63" data-name="Rectangle 9" width="10" height="10" rx="5" transform="translate(1071.102 646.66) rotate(90)" fill="#d66853"/>
    </g>
    <g transform="translate(-893.751 -366.751)">
      <rect id="Rectangle_9-64" data-name="Rectangle 9" width="10" height="10" rx="5" transform="translate(1071.102 646.66) rotate(90)" fill="#d66853"/>
    </g>
    <g transform="translate(-839.751 -366.751)">
      <rect id="Rectangle_9-65" data-name="Rectangle 9" width="10" height="10" rx="5" transform="translate(1071.102 646.66) rotate(90)" fill="#d66853"/>
    </g>
    <g transform="translate(-785.751 -366.751)">
      <rect id="Rectangle_9-66" data-name="Rectangle 9" width="10" height="10" rx="5" transform="translate(1071.102 646.66) rotate(90)" fill="#d66853"/>
    </g>
    <g transform="translate(-731.751 -366.751)">
      <rect id="Rectangle_9-67" data-name="Rectangle 9" width="10" height="10" rx="5" transform="translate(1071.102 646.66) rotate(90)" fill="#d66853"/>
    </g>
    <g transform="translate(-677.751 -366.751)">
      <rect id="Rectangle_9-68" data-name="Rectangle 9" width="10" height="10" rx="5" transform="translate(1071.102 646.66) rotate(90)" fill="#d66853"/>
    </g>
    <g transform="translate(-623.751 -366.751)">
      <rect id="Rectangle_9-69" data-name="Rectangle 9" width="10" height="10" rx="5" transform="translate(1071.102 646.66) rotate(90)" fill="#d66853"/>
    </g>
    <g transform="translate(-569.751 -366.751)">
      <rect id="Rectangle_9-70" data-name="Rectangle 9" width="10" height="10" rx="5" transform="translate(1071.102 646.66) rotate(90)" fill="#d66853"/>
    </g>
    <g transform="translate(-515.751 -366.751)">
      <rect id="Rectangle_9-71" data-name="Rectangle 9" width="10" height="10" rx="5" transform="translate(1071.102 646.66) rotate(90)" fill="#d66853"/>
    </g>
    <g transform="translate(-461.751 -366.751)">
      <rect id="Rectangle_9-72" data-name="Rectangle 9" width="10" height="10" rx="5" transform="translate(1071.102 646.66) rotate(90)" fill="#d66853"/>
    </g>
    <g transform="translate(-1055.751 -312.751)">
      <rect id="Rectangle_9-73" data-name="Rectangle 9" width="10" height="10" rx="5" transform="translate(1071.102 646.66) rotate(90)" fill="#d66853"/>
    </g>
    <g transform="translate(-1001.751 -312.751)">
      <rect id="Rectangle_9-74" data-name="Rectangle 9" width="10" height="10" rx="5" transform="translate(1071.102 646.66) rotate(90)" fill="#d66853"/>
    </g>
    <g transform="translate(-947.751 -312.751)">
      <rect id="Rectangle_9-75" data-name="Rectangle 9" width="10" height="10" rx="5" transform="translate(1071.102 646.66) rotate(90)" fill="#d66853"/>
    </g>
    <g transform="translate(-893.751 -312.751)">
      <rect id="Rectangle_9-76" data-name="Rectangle 9" width="10" height="10" rx="5" transform="translate(1071.102 646.66) rotate(90)" fill="#d66853"/>
    </g>
    <g transform="translate(-839.751 -312.751)">
      <rect id="Rectangle_9-77" data-name="Rectangle 9" width="10" height="10" rx="5" transform="translate(1071.102 646.66) rotate(90)" fill="#d66853"/>
    </g>
    <g transform="translate(-785.751 -312.751)">
      <rect id="Rectangle_9-78" data-name="Rectangle 9" width="10" height="10" rx="5" transform="translate(1071.102 646.66) rotate(90)" fill="#d66853"/>
    </g>
    <g transform="translate(-731.751 -312.751)">
      <rect id="Rectangle_9-79" data-name="Rectangle 9" width="10" height="10" rx="5" transform="translate(1071.102 646.66) rotate(90)" fill="#d66853"/>
    </g>
    <g transform="translate(-677.751 -312.751)">
      <rect id="Rectangle_9-80" data-name="Rectangle 9" width="10" height="10" rx="5" transform="translate(1071.102 646.66) rotate(90)" fill="#d66853"/>
    </g>
    <g transform="translate(-623.751 -312.751)">
      <rect id="Rectangle_9-81" data-name="Rectangle 9" width="10" height="10" rx="5" transform="translate(1071.102 646.66) rotate(90)" fill="#d66853"/>
    </g>
    <g transform="translate(-569.751 -312.751)">
      <rect id="Rectangle_9-82" data-name="Rectangle 9" width="10" height="10" rx="5" transform="translate(1071.102 646.66) rotate(90)" fill="#d66853"/>
    </g>
    <g transform="translate(-515.751 -312.751)">
      <rect id="Rectangle_9-83" data-name="Rectangle 9" width="10" height="10" rx="5" transform="translate(1071.102 646.66) rotate(90)" fill="#d66853"/>
    </g>
    <g transform="translate(-461.751 -312.751)">
      <rect id="Rectangle_9-84" data-name="Rectangle 9" width="10" height="10" rx="5" transform="translate(1071.102 646.66) rotate(90)" fill="#d66853"/>
    </g>
    <g transform="translate(-1055.751 -258.751)">
      <rect id="Rectangle_9-85" data-name="Rectangle 9" width="10" height="10" rx="5" transform="translate(1071.102 646.66) rotate(90)" fill="#d66853"/>
    </g>
    <g transform="translate(-1001.751 -258.751)">
      <rect id="Rectangle_9-86" data-name="Rectangle 9" width="10" height="10" rx="5" transform="translate(1071.102 646.66) rotate(90)" fill="#d66853"/>
    </g>
    <g transform="translate(-947.751 -258.751)">
      <rect id="Rectangle_9-87" data-name="Rectangle 9" width="10" height="10" rx="5" transform="translate(1071.102 646.66) rotate(90)" fill="#d66853"/>
    </g>
    <g transform="translate(-893.751 -258.751)">
      <rect id="Rectangle_9-88" data-name="Rectangle 9" width="10" height="10" rx="5" transform="translate(1071.102 646.66) rotate(90)" fill="#d66853"/>
    </g>
    <g transform="translate(-839.751 -258.751)">
      <rect id="Rectangle_9-89" data-name="Rectangle 9" width="10" height="10" rx="5" transform="translate(1071.102 646.66) rotate(90)" fill="#d66853"/>
    </g>
    <g transform="translate(-785.751 -258.751)">
      <rect id="Rectangle_9-90" data-name="Rectangle 9" width="10" height="10" rx="5" transform="translate(1071.102 646.66) rotate(90)" fill="#d66853"/>
    </g>
    <g transform="translate(-731.751 -258.751)">
      <rect id="Rectangle_9-91" data-name="Rectangle 9" width="10" height="10" rx="5" transform="translate(1071.102 646.66) rotate(90)" fill="#d66853"/>
    </g>
    <g transform="translate(-677.751 -258.751)">
      <rect id="Rectangle_9-92" data-name="Rectangle 9" width="10" height="10" rx="5" transform="translate(1071.102 646.66) rotate(90)" fill="#d66853"/>
    </g>
    <g transform="translate(-623.751 -258.751)">
      <rect id="Rectangle_9-93" data-name="Rectangle 9" width="10" height="10" rx="5" transform="translate(1071.102 646.66) rotate(90)" fill="#d66853"/>
    </g>
    <g transform="translate(-569.751 -258.751)">
      <rect id="Rectangle_9-94" data-name="Rectangle 9" width="10" height="10" rx="5" transform="translate(1071.102 646.66) rotate(90)" fill="#d66853"/>
    </g>
    <g transform="translate(-515.751 -258.751)">
      <rect id="Rectangle_9-95" data-name="Rectangle 9" width="10" height="10" rx="5" transform="translate(1071.102 646.66) rotate(90)" fill="#d66853"/>
    </g>
    <g transform="translate(-461.751 -258.751)">
      <rect id="Rectangle_9-96" data-name="Rectangle 9" width="10" height="10" rx="5" transform="translate(1071.102 646.66) rotate(90)" fill="#d66853"/>
    </g>
    <g transform="translate(-1055.751 -204.751)">
      <rect id="Rectangle_9-97" data-name="Rectangle 9" width="10" height="10" rx="5" transform="translate(1071.102 646.66) rotate(90)" fill="#d66853"/>
    </g>
    <g transform="translate(-1001.751 -204.751)">
      <rect id="Rectangle_9-98" data-name="Rectangle 9" width="10" height="10" rx="5" transform="translate(1071.102 646.66) rotate(90)" fill="#d66853"/>
    </g>
    <g transform="translate(-947.751 -204.751)">
      <rect id="Rectangle_9-99" data-name="Rectangle 9" width="10" height="10" rx="5" transform="translate(1071.102 646.66) rotate(90)" fill="#d66853"/>
    </g>
    <g transform="translate(-893.751 -204.751)">
      <rect id="Rectangle_9-100" data-name="Rectangle 9" width="10" height="10" rx="5" transform="translate(1071.102 646.66) rotate(90)" fill="#d66853"/>
    </g>
    <g transform="translate(-839.751 -204.751)">
      <rect id="Rectangle_9-101" data-name="Rectangle 9" width="10" height="10" rx="5" transform="translate(1071.102 646.66) rotate(90)" fill="#d66853"/>
    </g>
    <g transform="translate(-785.751 -204.751)">
      <rect id="Rectangle_9-102" data-name="Rectangle 9" width="10" height="10" rx="5" transform="translate(1071.102 646.66) rotate(90)" fill="#d66853"/>
    </g>
    <g transform="translate(-731.751 -204.751)">
      <rect id="Rectangle_9-103" data-name="Rectangle 9" width="10" height="10" rx="5" transform="translate(1071.102 646.66) rotate(90)" fill="#d66853"/>
    </g>
    <g transform="translate(-677.751 -204.751)">
      <rect id="Rectangle_9-104" data-name="Rectangle 9" width="10" height="10" rx="5" transform="translate(1071.102 646.66) rotate(90)" fill="#d66853"/>
    </g>
    <g transform="translate(-623.751 -204.751)">
      <rect id="Rectangle_9-105" data-name="Rectangle 9" width="10" height="10" rx="5" transform="translate(1071.102 646.66) rotate(90)" fill="#d66853"/>
    </g>
    <g transform="translate(-569.751 -204.751)">
      <rect id="Rectangle_9-106" data-name="Rectangle 9" width="10" height="10" rx="5" transform="translate(1071.102 646.66) rotate(90)" fill="#d66853"/>
    </g>
    <g transform="translate(-515.751 -204.751)">
      <rect id="Rectangle_9-107" data-name="Rectangle 9" width="10" height="10" rx="5" transform="translate(1071.102 646.66) rotate(90)" fill="#d66853"/>
    </g>
    <g transform="translate(-461.751 -204.751)">
      <rect id="Rectangle_9-108" data-name="Rectangle 9" width="10" height="10" rx="5" transform="translate(1071.102 646.66) rotate(90)" fill="#d66853"/>
    </g>
  </g>
</svg>
