<svg xmlns="http://www.w3.org/2000/svg" width="73.165" height="23.64" viewBox="0 0 73.165 23.64">
  <path id="Path_48" data-name="Path 48" d="M19.65-13.74c.39-1.83-.75-2.79-1.89-3.66-.81-.6-3.21-1.41-7.32-1.41a39.949,39.949,0,0,0-4.38.24c-.54.09-3.78,7.77-4.74,12.3C.84-3.99.99-2.04,2.13-2.04H2.4C5.28-2.61,18.54-8.58,19.65-13.74Zm-3.6-.48A29.758,29.758,0,0,1,4.95-6.45c.72-2.97,2.46-8.73,2.94-9.03a2.822,2.822,0,0,1,1.14-.09C11.19-15.57,16.8-15.21,16.05-14.22ZM33.96-4.29c.57-2.7.42-13.29-.75-15.45a1.817,1.817,0,0,0-1.62-.66,5.786,5.786,0,0,0-2.7.72c-.9.48-13.8,16.56-14.67,19.77-.15.54.24.87.84.87A3.582,3.582,0,0,0,17.1.24a10,10,0,0,0,.87-1.02c1.38-1.86,2.64-3.78,4.14-5.58a72.4,72.4,0,0,0,8.01-1.38A20.285,20.285,0,0,0,30-3.75a2.258,2.258,0,0,0,2.01.99A1.784,1.784,0,0,0,33.96-4.29Zm-3.72-6.99a27.121,27.121,0,0,0-5.58,1.29A82.938,82.938,0,0,1,30-16.89C30.12-15.99,30.18-12.78,30.24-11.28Zm26.7-6.87c.09-.48-.27-.81-.87-.81a3.759,3.759,0,0,0-1.92.57,44.089,44.089,0,0,0-5.7,5.82c-1.56,1.8-3.09,3.69-4.23,5.04a47.429,47.429,0,0,1-1.26-9.75c0-.93-.87-1.14-1.47-1.14a3.529,3.529,0,0,0-2.37.84,1.5,1.5,0,0,0-.36.78c-.48,2.16,1.23,9.87,2.1,13.8a.854.854,0,0,0,.9.63c.93,0,2.82-1.38,3.27-1.8a4.717,4.717,0,0,0,.81-1.05,3.668,3.668,0,0,1,.36-.57c.24-.3,8.19-9.45,10.41-11.79A1.3,1.3,0,0,0,56.94-18.15ZM65.76-2.31c.21-.93-.78-1.29-1.38-1.29a2.378,2.378,0,0,0-.75.15c-.81.27-3.57,1.11-5.37,1.56.03-.21.09-.42.12-.66.99-4.65,5.07-14.91,5.58-17.28a1.632,1.632,0,0,0,.03-.75,1.677,1.677,0,0,0-1.59-1.11,1.723,1.723,0,0,0-1.5.87c-1.56,2.67-5.94,16.95-6.66,20.4A1.682,1.682,0,0,0,54.27.81a3.4,3.4,0,0,0,2.22,1.14c.15,0,.27-.03.42-.03,1.56-.33,7.38-2.58,8.43-3.51A1.479,1.479,0,0,0,65.76-2.31Zm8.46-12.63c-.12-.9-1.29-1.11-1.92-1.11a2,2,0,0,0-1.47.54c-.57.69-2.19,5.67-2.73,8.25a5.48,5.48,0,0,0-.18,1.71c.09.63.54,1.89,1.29,1.89a1.487,1.487,0,0,0,.78-.24c1.05-.63,3.54-7.17,4.11-9.78A5.048,5.048,0,0,0,74.22-14.94Z" transform="translate(-1.063 21.69)" fill="#383838"/>
</svg>
